<svg width="256" height="256" viewBox="0 0 256 256" fill="none" xmlns="http://www.w3.org/2000/svg">
<rect width="256" height="256" fill="white"/>
<path d="M64 85.3333C64 73.5513 73.5513 64 85.3333 64H170.667C182.449 64 192 73.5513 192 85.3333V170.667C192 182.449 182.449 192 170.667 192H85.3333C73.5513 192 64 182.449 64 170.667V85.3333Z" fill="#2328DA"/>
<path fill-rule="evenodd" clip-rule="evenodd" d="M123 96H141V105H150V107.999H156V119.999H144V117H120V125.999H150V129.001H156V156.001H150V159.001H141V168H123V159.001H114V155.999H108V143.999H120V147.001H144V137.999H114V134.999H108V107.999H114V105H123V96Z" fill="#1A1F36"/>
<path fill-rule="evenodd" clip-rule="evenodd" d="M119 92H137V101H146V103.999H152V115.999H140V113H116V121.999H146V125.001H152V152.001H146V155.001H137V164H119V155.001H110V151.999H104V139.999H116V143.001H140V133.999H110V130.999H104V103.999H110V101H119V92Z" fill="white"/>
</svg>
